<svg xmlns="http://www.w3.org/2000/svg" xmlns:xlink="http://www.w3.org/1999/xlink" width="500" zoomAndPan="magnify" viewBox="0 0 375 374.999991" height="500" preserveAspectRatio="xMidYMid meet" version="1.0"><defs><clipPath id="90d3c2df10"><path d="M 187.5 0 C 83.945312 0 0 83.945312 0 187.5 C 0 291.054688 83.945312 375 187.5 375 C 291.054688 375 375 291.054688 375 187.5 C 375 83.945312 291.054688 0 187.5 0 Z M 187.5 0 " clip-rule="nonzero"/></clipPath><clipPath id="790ed8c8b3"><path d="M 96 53 L 294.734375 53 L 294.734375 322 L 96 322 Z M 96 53 " clip-rule="nonzero"/></clipPath><clipPath id="235bda7d14"><path d="M 100 171 L 112 171 L 112 197.820312 L 100 197.820312 Z M 100 171 " clip-rule="nonzero"/></clipPath><clipPath id="164dbd3a4e"><path d="M 98 169 L 114 169 L 114 197.820312 L 98 197.820312 Z M 98 169 " clip-rule="nonzero"/></clipPath><clipPath id="3dd6cd6733"><path d="M 63.792969 95 L 149.292969 95 L 149.292969 186 L 63.792969 186 Z M 63.792969 95 " clip-rule="nonzero"/></clipPath><clipPath id="73ded34353"><path d="M 81 50.070312 L 131 50.070312 L 131 96 L 81 96 Z M 81 50.070312 " clip-rule="nonzero"/></clipPath><clipPath id="7e95487fa0"><path d="M 75 50.070312 L 137 50.070312 L 137 101 L 75 101 Z M 75 50.070312 " clip-rule="nonzero"/></clipPath><clipPath id="6fb0bba736"><path d="M 288 287 L 301 287 L 301 313.777344 L 288 313.777344 Z M 288 287 " clip-rule="nonzero"/></clipPath><clipPath id="bc55c6701b"><path d="M 286 285 L 303 285 L 303 313.777344 L 286 313.777344 Z M 286 285 " clip-rule="nonzero"/></clipPath><clipPath id="26fa1fbff2"><path d="M 252.265625 211 L 337.765625 211 L 337.765625 302 L 252.265625 302 Z M 252.265625 211 " clip-rule="nonzero"/></clipPath><clipPath id="19e93f1250"><path d="M 269 166.027344 L 320 166.027344 L 320 211 L 269 211 Z M 269 166.027344 " clip-rule="nonzero"/></clipPath><clipPath id="4d613ca735"><path d="M 263 166.027344 L 325 166.027344 L 325 217 L 263 217 Z M 263 166.027344 " clip-rule="nonzero"/></clipPath></defs><g clip-path="url(#90d3c2df10)"><rect x="-37.5" width="450" fill="#7ed957" y="-37.499999" height="449.999989" fill-opacity="1"/></g><g clip-path="url(#790ed8c8b3)"><path fill="#c1ff72" d="M 249.832031 240.558594 L 250.621094 242.574219 C 247.382812 243.796875 243.785156 244.878906 240.117188 245.667969 L 239.683594 243.582031 C 243.28125 242.789062 246.734375 241.78125 249.902344 240.558594 Z M 211.621094 246.101562 C 209.246094 246.101562 206.726562 246.101562 203.921875 245.957031 L 203.921875 248.117188 C 206.65625 248.1875 209.175781 248.257812 211.546875 248.257812 C 212.554688 248.257812 213.636719 248.257812 214.714844 248.257812 L 214.714844 246.101562 C 213.636719 246.101562 212.628906 246.101562 211.621094 246.101562 Z M 261.054688 78.367188 C 257.960938 80.09375 254.722656 81.75 251.484375 83.261719 L 252.421875 85.203125 C 255.730469 83.691406 258.96875 82.039062 262.136719 80.238281 Z M 244.9375 86.066406 C 241.628906 87.363281 238.171875 88.585938 234.792969 89.59375 L 235.4375 91.679688 C 238.894531 90.671875 242.417969 89.449219 245.800781 88.152344 L 245.007812 86.140625 Z M 230.90625 170.042969 C 227.667969 169.824219 224.070312 169.609375 220.039062 169.539062 L 220.039062 171.695312 C 224.070312 171.769531 227.59375 171.914062 230.761719 172.199219 Z M 227.8125 91.464844 C 224.355469 92.253906 220.757812 92.976562 217.234375 93.480469 L 217.519531 95.636719 C 221.117188 95.132812 224.71875 94.414062 228.242188 93.621094 L 227.738281 91.535156 Z M 221.839844 245.886719 L 221.984375 248.042969 C 225.867188 247.828125 229.464844 247.46875 232.847656 246.964844 L 232.558594 244.804688 C 229.179688 245.308594 225.722656 245.597656 221.839844 245.8125 Z M 248.894531 172.992188 C 245.511719 172.054688 241.988281 171.335938 238.171875 170.832031 L 237.886719 172.992188 C 241.628906 173.496094 245.082031 174.214844 248.390625 175.078125 L 248.964844 172.992188 Z M 271.488281 185.007812 L 269.976562 186.589844 C 272.640625 189.183594 274.726562 191.917969 276.238281 194.9375 L 278.179688 193.929688 C 276.597656 190.765625 274.296875 187.742188 271.488281 185.007812 Z M 278.542969 201.414062 C 278.828125 202.925781 278.972656 204.4375 278.972656 205.949219 C 278.972656 207.460938 278.757812 209.761719 278.324219 211.703125 L 280.414062 212.207031 C 280.84375 210.121094 281.132812 208.035156 281.132812 206.019531 C 281.132812 204.003906 280.988281 202.636719 280.628906 201.054688 L 278.542969 201.488281 Z M 265.734375 180.402344 C 263.070312 178.605469 260.121094 177.019531 257.027344 175.796875 C 256.667969 175.652344 256.304688 175.511719 255.945312 175.367188 L 255.15625 177.382812 C 255.515625 177.523438 255.875 177.667969 256.234375 177.8125 C 259.183594 179.035156 261.992188 180.546875 264.582031 182.273438 L 265.804688 180.476562 Z M 137.289062 136.796875 C 136.425781 133.847656 135.992188 130.898438 135.992188 128.089844 C 135.992188 125.285156 135.992188 127.011719 135.992188 126.507812 L 133.835938 126.363281 C 133.835938 126.9375 133.835938 127.515625 133.835938 128.089844 C 133.835938 131.183594 134.339844 134.277344 135.203125 137.445312 Z M 138.222656 117.441406 C 139.304688 115.066406 140.742188 112.835938 142.542969 110.75 L 140.886719 109.308594 C 138.945312 111.539062 137.359375 113.914062 136.210938 116.503906 C 135.847656 117.296875 135.488281 118.160156 135.203125 118.953125 L 137.214844 119.671875 C 137.503906 118.878906 137.792969 118.160156 138.082031 117.441406 Z M 263.285156 233.363281 C 261.128906 234.945312 258.753906 236.457031 256.234375 237.679688 L 257.242188 239.625 C 259.832031 238.257812 262.277344 236.746094 264.582031 235.089844 C 265.230469 234.585938 265.875 234.082031 266.523438 233.578125 L 265.15625 231.925781 C 264.582031 232.429688 263.933594 232.933594 263.285156 233.363281 Z M 275.949219 68.507812 C 273.144531 70.667969 270.195312 72.753906 267.171875 74.699219 L 268.324219 76.496094 C 271.417969 74.554688 274.367188 72.394531 277.246094 70.164062 L 275.949219 68.4375 Z M 270.195312 227.03125 L 271.847656 228.472656 C 274.367188 225.59375 276.453125 222.5 277.964844 219.1875 L 276.023438 218.253906 C 274.582031 221.347656 272.640625 224.296875 270.195312 227.03125 Z M 191.976562 96.789062 L 192.191406 96.789062 C 192.191406 96.789062 192.191406 94.628906 192.191406 94.628906 L 191.976562 94.628906 C 190.035156 94.628906 188.089844 94.628906 186.148438 94.628906 C 184.203125 94.628906 182.765625 94.628906 181.328125 94.628906 L 181.328125 96.789062 C 182.835938 96.789062 184.347656 96.789062 186.148438 96.789062 C 187.945312 96.789062 190.035156 96.789062 191.976562 96.789062 Z M 156.140625 98.949219 C 152.542969 100.386719 149.234375 102.1875 146.425781 104.273438 L 147.722656 106 C 150.457031 103.984375 153.550781 102.328125 156.933594 100.960938 Z M 149.59375 248.835938 L 150.167969 250.921875 C 153.40625 250.058594 156.933594 249.339844 160.675781 248.761719 L 160.386719 246.605469 C 156.574219 247.109375 152.976562 247.898438 149.664062 248.761719 Z M 136.351562 253.871094 C 135.128906 254.519531 133.90625 255.167969 132.683594 255.886719 L 133.835938 257.757812 C 134.984375 257.039062 136.136719 256.390625 137.359375 255.816406 C 139.304688 254.808594 141.316406 253.945312 143.40625 253.082031 L 142.613281 251.066406 C 140.453125 251.929688 138.367188 252.863281 136.351562 253.871094 Z M 150.960938 156.65625 L 149.59375 158.3125 C 151.105469 159.535156 152.757812 160.6875 154.414062 161.621094 C 155.855469 162.484375 157.4375 163.347656 159.019531 164.070312 L 159.957031 162.125 C 158.445312 161.40625 156.933594 160.613281 155.492188 159.75 C 153.910156 158.816406 152.398438 157.738281 150.960938 156.585938 Z M 109.082031 283.375 L 111.023438 284.238281 C 112.464844 281 114.261719 277.90625 116.203125 274.957031 L 114.40625 273.730469 C 112.390625 276.753906 110.59375 279.992188 109.007812 283.375 Z M 212.773438 171.625 L 212.773438 169.464844 L 205.359375 169.464844 C 204.210938 169.464844 203.058594 169.464844 201.90625 169.464844 L 201.90625 171.625 C 203.058594 171.625 204.210938 171.625 205.359375 171.625 Z M 118.867188 267.902344 L 120.523438 269.34375 C 122.824219 266.609375 125.414062 264.160156 128.148438 261.929688 L 126.78125 260.277344 C 123.976562 262.578125 121.3125 265.167969 118.867188 267.976562 Z M 138.007812 144.28125 C 139.664062 147.519531 141.820312 150.613281 144.339844 153.417969 L 145.921875 151.980469 C 143.550781 149.316406 141.535156 146.367188 139.949219 143.34375 L 138.007812 144.351562 Z M 185.789062 247.683594 C 189.457031 247.683594 193.128906 247.828125 196.582031 247.972656 L 196.582031 245.8125 C 193.199219 245.667969 189.457031 245.597656 185.789062 245.523438 Z M 194.710938 169.394531 C 190.753906 169.25 187.300781 169.035156 183.988281 168.601562 L 183.773438 170.761719 C 187.082031 171.121094 190.679688 171.410156 194.640625 171.550781 L 194.640625 169.394531 Z M 210.398438 96.429688 L 210.179688 94.269531 C 208.527344 94.414062 206.871094 94.484375 205.289062 94.558594 C 203.488281 94.628906 201.617188 94.703125 199.460938 94.703125 L 199.460938 96.859375 C 201.617188 96.859375 203.5625 96.859375 205.359375 96.71875 C 207.015625 96.644531 208.671875 96.5 210.324219 96.429688 Z M 106.132812 301.21875 C 106.632812 297.765625 107.425781 294.242188 108.503906 290.859375 L 106.417969 290.210938 C 105.265625 293.738281 104.476562 297.335938 103.972656 300.933594 Z M 176.9375 167.523438 C 173.265625 166.875 169.742188 165.941406 166.574219 164.933594 L 165.925781 166.949219 C 169.238281 168.027344 172.761719 168.960938 176.578125 169.609375 L 176.9375 167.449219 Z M 174.273438 97.148438 L 174.058594 94.988281 C 171.683594 95.207031 169.527344 95.492188 167.367188 95.851562 C 166 96.070312 164.558594 96.355469 163.191406 96.71875 L 163.695312 98.804688 C 164.992188 98.445312 166.359375 98.226562 167.726562 97.941406 C 169.8125 97.582031 171.898438 97.292969 174.203125 97.148438 Z M 167.65625 245.886719 L 167.796875 248.042969 C 171.109375 247.753906 174.632812 247.613281 178.519531 247.613281 L 178.519531 245.453125 C 174.5625 245.453125 170.964844 245.667969 167.582031 245.886719 Z M 103.539062 305.25 C 99.078125 305.898438 95.984375 310 96.632812 314.386719 C 97.28125 318.851562 101.382812 321.945312 105.769531 321.296875 C 110.234375 320.648438 113.328125 316.546875 112.679688 312.15625 C 112.03125 307.695312 107.929688 304.601562 103.539062 305.25 Z M 280.195312 55.558594 C 277.03125 58.722656 277.03125 63.902344 280.195312 67.070312 C 283.363281 70.238281 288.542969 70.238281 291.710938 67.070312 C 294.875 63.902344 294.875 58.722656 291.710938 55.558594 C 288.542969 52.390625 283.363281 52.390625 280.195312 55.558594 Z M 280.195312 55.558594 " fill-opacity="1" fill-rule="nonzero"/></g><g clip-path="url(#235bda7d14)"><path fill="#00bf63" d="M 100.242188 171.675781 L 111.578125 171.675781 L 111.578125 195.707031 C 108.253906 197.292969 104.25 197.746094 100.242188 195.707031 Z M 100.242188 171.675781 " fill-opacity="1" fill-rule="evenodd"/></g><g clip-path="url(#164dbd3a4e)"><path stroke-linecap="butt" transform="matrix(0.308918, 0, 0, 0.308918, 4.896482, 50.223059)" fill="none" stroke-linejoin="miter" d="M 308.644383 393.155628 L 345.340042 393.155628 L 345.340042 470.947389 C 334.579185 476.081241 321.618107 477.548056 308.644383 470.947389 Z M 308.644383 393.155628 " stroke="#000000" stroke-width="1.25" stroke-opacity="1" stroke-miterlimit="4"/></g><path fill="#00bf63" d="M 146.277344 174.503906 C 120.554688 169.273438 92.933594 180.207031 65.550781 174.503906 C 84.230469 157.378906 89.605469 122.90625 105.914062 104.59375 C 119.128906 122.429688 127.355469 157.378906 146.277344 174.503906 Z M 146.277344 174.503906 " fill-opacity="1" fill-rule="evenodd"/><g clip-path="url(#3dd6cd6733)"><path stroke-linecap="butt" transform="matrix(0.308918, 0, 0, 0.308918, 4.896482, 50.223059)" fill="none" stroke-linejoin="miter" d="M 457.665175 402.310575 C 374.398148 385.378981 284.985673 420.772209 196.34454 402.310575 C 256.812714 346.875094 274.212172 235.283368 327.004857 176.003821 C 369.782739 233.740684 396.413014 346.875094 457.665175 402.310575 Z M 457.665175 402.310575 " stroke="#000000" stroke-width="5.214" stroke-opacity="1" stroke-miterlimit="4"/></g><path stroke-linecap="butt" transform="matrix(0.308918, 0, 0, 0.308918, 4.896482, 50.223059)" fill-opacity="1" fill="#00bf63" fill-rule="evenodd" stroke-linejoin="miter" d="M 431.464828 257.10856 C 364.901787 243.578459 293.407213 271.877867 222.532242 257.10856 C 270.886548 212.787994 284.795999 123.565193 327.004857 76.171903 C 361.20946 122.338633 382.503564 212.787994 431.464828 257.10856 Z M 431.464828 257.10856 " stroke="#000000" stroke-width="4.169" stroke-opacity="1" stroke-miterlimit="4"/><g clip-path="url(#73ded34353)"><path fill="#00bf63" d="M 130.800781 93.976562 C 114.941406 90.75 97.910156 97.492188 81.027344 93.976562 C 92.546875 83.414062 95.859375 62.160156 105.914062 50.867188 C 114.0625 61.867188 119.136719 83.417969 130.800781 93.976562 Z M 130.800781 93.976562 " fill-opacity="1" fill-rule="evenodd"/></g><g clip-path="url(#7e95487fa0)"><path stroke-linecap="butt" transform="matrix(0.308918, 0, 0, 0.308918, 4.896482, 50.223059)" fill="none" stroke-linejoin="miter" d="M 407.565864 141.634834 C 356.227348 131.190101 301.095345 153.015293 246.443851 141.634834 C 283.733822 107.442876 294.456744 38.641678 327.004857 2.085113 C 353.382233 37.693306 369.808029 107.455521 407.565864 141.634834 Z M 407.565864 141.634834 " stroke="#000000" stroke-width="3.215" stroke-opacity="1" stroke-miterlimit="4"/></g><g clip-path="url(#6fb0bba736)"><path fill="#00bf63" d="M 288.71875 287.632812 L 300.054688 287.632812 L 300.054688 311.664062 C 296.730469 313.253906 292.726562 313.707031 288.71875 311.664062 Z M 288.71875 287.632812 " fill-opacity="1" fill-rule="evenodd"/></g><g clip-path="url(#bc55c6701b)"><path stroke-linecap="butt" transform="matrix(0.308918, 0, 0, 0.308918, 193.371935, 166.181972)" fill="none" stroke-linejoin="miter" d="M 308.647976 393.149536 L 345.343635 393.149536 L 345.343635 470.941297 C 334.582779 476.087794 321.6217 477.554609 308.647976 470.941297 Z M 308.647976 393.149536 " stroke="#000000" stroke-width="1.25" stroke-opacity="1" stroke-miterlimit="4"/></g><path fill="#00bf63" d="M 334.75 290.460938 C 309.03125 285.234375 281.40625 296.167969 254.023438 290.460938 C 272.707031 273.335938 278.082031 238.863281 294.386719 220.550781 C 307.605469 238.390625 315.832031 273.339844 334.75 290.460938 Z M 334.75 290.460938 " fill-opacity="1" fill-rule="evenodd"/><g clip-path="url(#26fa1fbff2)"><path stroke-linecap="butt" transform="matrix(0.308918, 0, 0, 0.308918, 193.371935, 166.181972)" fill="none" stroke-linejoin="miter" d="M 457.656123 402.304483 C 374.401741 385.385534 284.976621 420.778762 196.335489 402.304483 C 256.816307 346.869002 274.215765 235.277276 326.995806 175.997729 C 369.786332 233.747237 396.416607 346.881647 457.656123 402.304483 Z M 457.656123 402.304483 " stroke="#000000" stroke-width="5.214" stroke-opacity="1" stroke-miterlimit="4"/></g><path stroke-linecap="butt" transform="matrix(0.308918, 0, 0, 0.308918, 193.371935, 166.181972)" fill-opacity="1" fill="#00bf63" fill-rule="evenodd" stroke-linejoin="miter" d="M 431.468422 257.115113 C 364.90538 243.572367 293.410806 271.871775 222.535835 257.115113 C 270.890142 212.781902 284.799592 123.559101 326.995806 76.165811 C 361.213053 122.332541 382.494512 212.794547 431.468422 257.115113 Z M 431.468422 257.115113 " stroke="#000000" stroke-width="4.169" stroke-opacity="1" stroke-miterlimit="4"/><g clip-path="url(#19e93f1250)"><path fill="#00bf63" d="M 319.277344 209.933594 C 303.417969 206.710938 286.386719 213.449219 269.5 209.933594 C 281.019531 199.375 284.335938 178.117188 294.390625 166.828125 C 302.539062 177.828125 307.609375 199.375 319.277344 209.933594 Z M 319.277344 209.933594 " fill-opacity="1" fill-rule="evenodd"/></g><g clip-path="url(#4d613ca735)"><path stroke-linecap="butt" transform="matrix(0.308918, 0, 0, 0.308918, 193.371935, 166.181972)" fill="none" stroke-linejoin="miter" d="M 407.569457 141.628742 C 356.230941 131.196654 301.098938 153.009201 246.434799 141.628742 C 283.724771 107.449429 294.460337 38.635586 327.008451 2.091666 C 353.385826 37.699859 369.798977 107.449429 407.569457 141.628742 Z M 407.569457 141.628742 " stroke="#000000" stroke-width="3.215" stroke-opacity="1" stroke-miterlimit="4"/></g></svg>